<svg width="1151.36" height="68.88" viewBox="0 0 1151.36 68.88" xmlns="http://www.w3.org/2000/svg">
	<g id="svgGroup" stroke-linecap="round" fill-rule="evenodd" font-size="9pt" stroke="#000" stroke-width="0.25mm" fill="none" style="stroke:#000;stroke-width:0.25mm;fill:none">
		<path d="M 31.36 47.92 L 33.12 53.36 Q 30.32 54.96 27.16 55.72 A 27.714 27.714 0 0 1 22.227 56.429 A 32.56 32.56 0 0 1 20.4 56.48 A 21.712 21.712 0 0 1 14.733 55.759 A 19.333 19.333 0 0 1 12.28 54.92 Q 8.56 53.36 5.84 50.2 A 19.836 19.836 0 0 1 3.212 46.229 A 27.305 27.305 0 0 1 1.56 42.16 A 30.863 30.863 0 0 1 0.441 37.198 Q 0.083 34.736 0.016 31.945 A 54.327 54.327 0 0 1 0 30.64 Q 0 24.533 1.532 19.845 A 25.413 25.413 0 0 1 1.64 19.52 Q 3.28 14.72 6.08 11.44 Q 8.88 8.16 12.64 6.48 Q 16.4 4.8 20.64 4.8 Q 23.6 4.8 26.68 5.6 Q 29.76 6.4 32.72 8.24 L 30.8 13.68 Q 26.448 11.174 22.531 10.734 A 14.768 14.768 0 0 0 20.88 10.64 A 13.2 13.2 0 0 0 17.405 11.083 A 11.314 11.314 0 0 0 15 12.04 A 12.496 12.496 0 0 0 11.154 15.285 A 14.919 14.919 0 0 0 10.56 16.08 Q 8.72 18.72 7.72 22.4 Q 6.72 26.08 6.72 30.64 Q 6.72 35.113 7.544 38.547 A 22.75 22.75 0 0 0 7.8 39.52 A 22.366 22.366 0 0 0 8.906 42.565 Q 9.72 44.365 10.8 45.76 Q 12.72 48.24 15.4 49.44 A 13.955 13.955 0 0 0 20.909 50.637 A 16.065 16.065 0 0 0 21.2 50.64 A 20.113 20.113 0 0 0 24.426 50.369 A 24.394 24.394 0 0 0 26.08 50.04 Q 28.64 49.44 31.36 47.92 Z" id="0" vector-effect="non-scaling-stroke"/>
		<path d="M 72.77 41.318 A 26.993 26.993 0 0 0 73.12 36.88 A 28.394 28.394 0 0 0 72.96 33.821 A 22.606 22.606 0 0 0 71.88 28.88 Q 70.64 25.28 68.4 22.76 Q 66.16 20.24 63.04 18.84 Q 59.92 17.44 56.24 17.44 A 18.269 18.269 0 0 0 55.792 17.445 A 15.838 15.838 0 0 0 49.56 18.84 Q 46.48 20.24 44.24 22.76 A 16.169 16.169 0 0 0 42.528 25.078 A 19.352 19.352 0 0 0 40.76 28.88 A 21.745 21.745 0 0 0 39.907 32.214 A 27.019 27.019 0 0 0 39.52 36.88 Q 39.52 41.28 40.76 44.84 Q 42 48.4 44.24 50.96 Q 46.48 53.52 49.56 54.92 A 15.275 15.275 0 0 0 50.833 55.431 A 16.243 16.243 0 0 0 56.24 56.32 A 18.882 18.882 0 0 0 57.039 56.303 A 16.192 16.192 0 0 0 63.04 54.92 Q 66.16 53.52 68.4 50.96 Q 70.64 48.4 71.88 44.84 A 21.362 21.362 0 0 0 72.77 41.318 Z M 66.32 36.88 A 23.756 23.756 0 0 0 66.013 32.936 Q 65.407 29.337 63.6 26.92 Q 60.967 23.396 56.533 23.284 A 11.6 11.6 0 0 0 56.24 23.28 A 9.17 9.17 0 0 0 52.61 23.977 Q 50.639 24.817 49.191 26.669 A 10.898 10.898 0 0 0 49 26.92 A 12.627 12.627 0 0 0 47.077 30.921 Q 46.32 33.523 46.32 36.88 A 23.542 23.542 0 0 0 46.63 40.821 Q 47.231 44.357 49 46.76 Q 51.58 50.264 55.902 50.395 A 11.167 11.167 0 0 0 56.24 50.4 A 9.492 9.492 0 0 0 59.873 49.728 Q 61.981 48.864 63.503 46.889 A 10.996 10.996 0 0 0 63.6 46.76 A 12.653 12.653 0 0 0 65.597 42.624 Q 66.094 40.887 66.25 38.823 A 25.896 25.896 0 0 0 66.32 36.88 Z" id="1" vector-effect="non-scaling-stroke"/>
		<path d="M 79.6 55.44 L 79.6 19.36 A 29.756 29.756 0 0 1 83.977 18.039 A 22.126 22.126 0 0 1 88.64 17.52 A 14.07 14.07 0 0 1 92.029 17.919 A 12.745 12.745 0 0 1 93 18.2 A 8.855 8.855 0 0 1 96.016 19.889 A 8.534 8.534 0 0 1 96.48 20.32 A 13.159 13.159 0 0 1 99.682 18.363 A 10.631 10.631 0 0 1 103.84 17.52 A 9.331 9.331 0 0 1 107.48 18.24 Q 109.2 18.96 110.52 20.4 A 9.833 9.833 0 0 1 111.952 22.452 A 12.77 12.77 0 0 1 112.64 24 A 12.319 12.319 0 0 1 113.253 26.419 Q 113.429 27.568 113.44 28.866 A 20.502 20.502 0 0 1 113.44 29.04 L 113.44 55.44 L 107.44 55.44 L 107.44 28.88 Q 107.44 26 106.16 24.48 A 4.357 4.357 0 0 0 104.869 23.415 A 4.015 4.015 0 0 0 102.96 22.96 A 4.281 4.281 0 0 0 101.792 23.129 A 5.671 5.671 0 0 0 100.96 23.44 A 5.081 5.081 0 0 0 99.752 24.233 A 6.71 6.71 0 0 0 99.04 24.96 Q 99.52 26.8 99.52 29.04 L 99.52 41.12 L 93.52 41.12 L 93.52 28.96 A 14.527 14.527 0 0 0 93.434 27.327 Q 93.34 26.494 93.141 25.802 A 6.009 6.009 0 0 0 92.64 24.56 Q 91.76 22.96 89.2 22.96 A 8.516 8.516 0 0 0 87.668 23.108 Q 86.938 23.242 86.14 23.497 A 15.703 15.703 0 0 0 85.6 23.68 L 85.6 55.44 L 79.6 55.44 Z" id="2" vector-effect="non-scaling-stroke"/>
		<path d="M 128.64 54 L 128.64 68.64 L 122 68.64 L 122 19.44 Q 124.16 18.8 127.56 18.16 Q 130.733 17.563 134.776 17.523 A 59.126 59.126 0 0 1 135.36 17.52 A 20.384 20.384 0 0 1 139.801 17.987 A 17.108 17.108 0 0 1 142.64 18.88 Q 145.92 20.24 148.24 22.76 Q 150.56 25.28 151.84 28.88 A 21.904 21.904 0 0 1 152.933 33.659 A 28.105 28.105 0 0 1 153.12 36.96 Q 153.12 41.2 152.04 44.76 A 19.864 19.864 0 0 1 150.522 48.449 A 16.41 16.41 0 0 1 148.92 50.88 Q 146.88 53.44 143.92 54.88 A 14.27 14.27 0 0 1 139.362 56.193 A 17.938 17.938 0 0 1 137.2 56.32 A 20.641 20.641 0 0 1 134.666 56.172 Q 133.225 55.994 132 55.6 Q 129.76 54.88 128.64 54 Z M 128.64 24.16 L 128.64 47.6 Q 129.451 48.353 130.806 49.021 A 17.09 17.09 0 0 0 131.92 49.52 Q 134.08 50.4 136.4 50.4 A 11.201 11.201 0 0 0 138.547 50.204 A 8.057 8.057 0 0 0 140.92 49.36 Q 142.8 48.32 144 46.52 A 11.739 11.739 0 0 0 145.287 43.917 A 14.821 14.821 0 0 0 145.76 42.28 A 21.97 21.97 0 0 0 146.242 39.058 A 27.212 27.212 0 0 0 146.32 36.96 A 22.19 22.19 0 0 0 145.994 33.027 Q 145.607 30.88 144.76 29.175 A 10.948 10.948 0 0 0 143.28 26.92 A 9.81 9.81 0 0 0 136.112 23.382 A 12.815 12.815 0 0 0 135.36 23.36 A 50.087 50.087 0 0 0 133.774 23.383 Q 132.153 23.435 131.08 23.6 A 22.284 22.284 0 0 0 130.172 23.758 Q 129.245 23.94 128.64 24.16 Z" id="3" vector-effect="non-scaling-stroke"/>
		<path d="M 190.64 18.32 L 190.64 54.4 A 47.836 47.836 0 0 1 189.154 54.758 Q 187.425 55.147 185.077 55.572 A 152.633 152.633 0 0 1 184.92 55.6 Q 181.861 56.15 177.886 56.227 A 68.152 68.152 0 0 1 176.56 56.24 Q 172.32 56.24 169.52 55 A 11.832 11.832 0 0 1 165.937 52.586 A 11.174 11.174 0 0 1 164.96 51.48 Q 163.2 49.2 162.48 46.08 A 27.758 27.758 0 0 1 161.879 42.149 A 35.428 35.428 0 0 1 161.76 39.2 L 161.76 18.32 L 168.32 18.32 L 168.32 37.76 Q 168.32 43.297 169.642 46.243 A 7.542 7.542 0 0 0 170.36 47.52 Q 172.192 50.107 176.251 50.37 A 14.658 14.658 0 0 0 177.2 50.4 Q 178.24 50.4 179.32 50.32 Q 180.4 50.24 181.36 50.12 Q 182.32 50 183.04 49.88 A 21.557 21.557 0 0 0 183.332 49.829 Q 183.728 49.758 183.925 49.703 A 1.606 1.606 0 0 0 184 49.68 L 184 18.32 L 190.64 18.32 Z" id="4" vector-effect="non-scaling-stroke"/>
		<path d="M 215.76 6.8 L 215.76 18.32 L 231.44 18.32 L 231.44 23.84 L 215.76 23.84 L 215.76 41.12 Q 215.76 43.92 216.16 45.68 A 8.267 8.267 0 0 0 216.571 46.998 Q 216.934 47.879 217.48 48.52 A 4.649 4.649 0 0 0 219.795 49.987 A 5.597 5.597 0 0 0 219.84 50 A 9.883 9.883 0 0 0 221.116 50.259 Q 221.747 50.347 222.466 50.38 A 19.495 19.495 0 0 0 223.36 50.4 Q 225.243 50.4 226.646 50.195 A 11.457 11.457 0 0 0 228 49.92 Q 229.76 49.44 231.36 48.64 L 232.32 54.24 Q 231.221 54.711 228.848 55.491 A 121.184 121.184 0 0 1 228.76 55.52 Q 226.818 56.157 224.141 56.287 A 29.328 29.328 0 0 1 222.72 56.32 A 29.742 29.742 0 0 1 220.04 56.207 Q 218.702 56.085 217.569 55.834 A 13.188 13.188 0 0 1 215.92 55.36 A 10.211 10.211 0 0 1 213.7 54.249 A 8.048 8.048 0 0 1 211.8 52.48 A 10.117 10.117 0 0 1 210.338 49.798 A 13.476 13.476 0 0 1 209.76 47.72 A 27.544 27.544 0 0 1 209.377 45.059 Q 209.2 43.235 209.2 41.12 L 209.2 23.84 L 201.36 23.84 L 201.36 18.32 L 209.2 18.32 L 209.2 7.92 L 215.76 6.8 Z" id="5" vector-effect="non-scaling-stroke"/>
		<path d="M 251.36 41.12 L 251.36 23.84 L 240.64 23.84 L 240.64 18.32 L 257.92 18.32 L 257.92 41.12 Q 257.92 45.142 258.727 47.231 A 4.772 4.772 0 0 0 259.44 48.52 A 4.863 4.863 0 0 0 262.129 50.188 Q 262.926 50.387 263.873 50.399 A 9.678 9.678 0 0 0 264 50.4 A 16.846 16.846 0 0 0 266.628 50.203 A 13.895 13.895 0 0 0 268.28 49.84 A 22.42 22.42 0 0 0 269.423 49.482 Q 270.002 49.283 270.483 49.074 A 8.965 8.965 0 0 0 271.36 48.64 L 272.32 54.24 Q 271.84 54.48 270.96 54.84 A 15.077 15.077 0 0 1 270.074 55.169 Q 269.604 55.327 269.073 55.477 A 25.077 25.077 0 0 1 268.92 55.52 A 23.752 23.752 0 0 1 267.539 55.855 A 30.441 30.441 0 0 1 266.36 56.08 A 17.039 17.039 0 0 1 263.818 56.316 A 18.973 18.973 0 0 1 263.44 56.32 A 21.307 21.307 0 0 1 260.993 56.188 Q 259.784 56.048 258.761 55.759 A 10.445 10.445 0 0 1 257.6 55.36 A 8.733 8.733 0 0 1 254.715 53.458 A 8.369 8.369 0 0 1 253.88 52.48 A 10.431 10.431 0 0 1 252.571 50.029 A 14.223 14.223 0 0 1 251.92 47.72 A 27.544 27.544 0 0 1 251.537 45.059 Q 251.36 43.235 251.36 41.12 Z M 253.04 12.56 Q 250.96 12.56 249.44 11.12 A 4.761 4.761 0 0 1 248.028 8.444 A 6.9 6.9 0 0 1 247.92 7.2 A 6.526 6.526 0 0 1 248.125 5.519 A 4.673 4.673 0 0 1 249.44 3.28 Q 250.96 1.84 253.04 1.84 A 5.341 5.341 0 0 1 255.085 2.222 A 4.989 4.989 0 0 1 256.68 3.28 A 4.768 4.768 0 0 1 258.03 5.819 A 6.958 6.958 0 0 1 258.16 7.2 A 6.722 6.722 0 0 1 257.969 8.848 A 4.708 4.708 0 0 1 256.68 11.12 A 5.018 5.018 0 0 1 253.049 12.56 A 6.35 6.35 0 0 1 253.04 12.56 Z" id="6" vector-effect="non-scaling-stroke"/>
		<path d="M 282 55.44 L 282 19.36 Q 285.6 18.48 289.16 18 A 54.641 54.641 0 0 1 293.233 17.599 A 44.208 44.208 0 0 1 295.84 17.52 Q 303.28 17.52 307.08 21.36 Q 310.88 25.2 310.88 33.68 L 310.88 55.44 L 304.32 55.44 L 304.32 34.88 Q 304.32 31.28 303.68 29.04 A 11.546 11.546 0 0 0 303.14 27.53 Q 302.614 26.345 301.88 25.56 Q 300.72 24.32 299.08 23.84 Q 297.44 23.36 295.52 23.36 Q 293.92 23.36 292.12 23.56 Q 290.32 23.76 288.64 24.08 L 288.64 55.44 L 282 55.44 Z" id="7" vector-effect="non-scaling-stroke"/>
		<path d="M 344 53.28 L 344 52 A 9.012 9.012 0 0 1 343.229 52.387 Q 342.435 52.744 341.292 53.125 A 37.415 37.415 0 0 1 340.56 53.36 Q 338.385 54.035 335.577 54.077 A 25.108 25.108 0 0 1 335.2 54.08 A 17.578 17.578 0 0 1 330.539 53.476 A 15.956 15.956 0 0 1 329.08 53 Q 326.24 51.92 324.12 49.72 A 14.227 14.227 0 0 1 321.839 46.547 A 18.654 18.654 0 0 1 320.76 44.12 Q 319.52 40.72 319.52 36.08 A 24.982 24.982 0 0 1 319.929 31.475 A 20.69 20.69 0 0 1 320.68 28.6 A 17.672 17.672 0 0 1 322.826 24.274 A 15.933 15.933 0 0 1 324.04 22.72 A 15.303 15.303 0 0 1 329.39 18.862 A 17.493 17.493 0 0 1 329.44 18.84 Q 332.64 17.44 336.72 17.44 Q 341.52 17.44 344.92 18.12 Q 348.32 18.8 350.64 19.44 L 350.64 52.56 A 27.072 27.072 0 0 1 350.295 57.04 Q 349.896 59.415 349.034 61.28 A 11.183 11.183 0 0 1 346.28 65.04 Q 341.92 68.88 333.12 68.88 Q 329.52 68.88 326.6 68.32 A 41.831 41.831 0 0 1 324.012 67.742 Q 322.63 67.385 321.44 66.96 L 322.64 61.12 A 22.487 22.487 0 0 0 325.02 61.965 A 30.049 30.049 0 0 0 327.4 62.56 A 26.167 26.167 0 0 0 330.766 63.028 A 33.138 33.138 0 0 0 333.28 63.12 Q 338.523 63.12 341.049 61.198 A 6.08 6.08 0 0 0 341.52 60.8 Q 343.403 59.039 343.856 55.619 A 17.826 17.826 0 0 0 344 53.28 Z M 344 45.84 L 344 24.16 Q 343.04 23.84 341.36 23.56 A 16.51 16.51 0 0 0 340.193 23.412 Q 338.979 23.299 337.346 23.283 A 55.733 55.733 0 0 0 336.8 23.28 A 11.855 11.855 0 0 0 333.569 23.696 A 8.5 8.5 0 0 0 329 26.8 Q 326.32 30.32 326.32 36.16 A 22.582 22.582 0 0 0 326.446 38.608 Q 326.58 39.841 326.859 40.898 A 12.162 12.162 0 0 0 327.08 41.64 A 12.498 12.498 0 0 0 327.916 43.602 A 9.28 9.28 0 0 0 329.16 45.4 Q 330.48 46.88 332.16 47.56 A 9.47 9.47 0 0 0 335.633 48.239 A 10.777 10.777 0 0 0 335.76 48.24 A 15.239 15.239 0 0 0 339.605 47.765 A 13.988 13.988 0 0 0 340.44 47.52 Q 342.125 46.969 343.317 46.277 A 9.154 9.154 0 0 0 344 45.84 Z" id="8" vector-effect="non-scaling-stroke"/>
		<path d="M 415.36 29.76 L 418.08 32.8 Q 419.44 34.4 420.92 36.04 Q 422.4 37.68 423.92 39.52 Q 424.56 37.28 425.04 34.64 Q 425.52 32 425.76 28.8 L 431.28 29.52 A 69.243 69.243 0 0 1 430.712 33.78 Q 430.355 35.923 429.88 37.8 A 41.733 41.733 0 0 1 428.633 41.883 A 33.724 33.724 0 0 1 427.6 44.4 Q 429.44 46.96 431.12 49.68 Q 432.8 52.4 434.16 55.44 L 427.2 55.44 Q 425.84 52.64 424.16 50.08 A 17.853 17.853 0 0 1 421.628 52.684 A 13.652 13.652 0 0 1 418.44 54.68 Q 415.28 56.08 411.84 56.08 A 15.849 15.849 0 0 1 408.875 55.814 A 12.483 12.483 0 0 1 406.4 55.08 A 12.129 12.129 0 0 1 403.097 53.06 A 11.287 11.287 0 0 1 402.32 52.32 Q 400.64 50.56 399.72 48.24 Q 398.8 45.92 398.8 43.36 A 15.558 15.558 0 0 1 399.727 38.152 A 19.688 19.688 0 0 1 400.76 35.76 A 18.505 18.505 0 0 1 403.486 31.838 Q 404.973 30.178 406.96 28.64 A 31.404 31.404 0 0 1 404.478 24.752 A 27.069 27.069 0 0 1 403.6 22.96 Q 402.32 20.08 402.32 17.04 Q 402.32 13.92 403.32 11.6 A 11.473 11.473 0 0 1 404.66 9.256 A 9.589 9.589 0 0 1 406 7.8 Q 407.68 6.32 409.88 5.56 Q 412.08 4.8 414.4 4.8 Q 416.48 4.8 418.48 5.44 Q 420.48 6.08 422 7.4 A 9.86 9.86 0 0 1 424.382 10.521 A 11.256 11.256 0 0 1 424.44 10.64 A 9.293 9.293 0 0 1 425.252 13.401 A 11.962 11.962 0 0 1 425.36 15.04 A 12.532 12.532 0 0 1 424.558 19.362 Q 423.982 20.938 422.992 22.549 A 21.427 21.427 0 0 1 422.96 22.6 A 18.302 18.302 0 0 1 420.153 26.049 Q 418.163 27.992 415.36 29.76 Z M 410.08 32.64 A 13.581 13.581 0 0 0 406.75 37.102 A 13.216 13.216 0 0 0 406.6 37.44 A 14.968 14.968 0 0 0 405.695 40.285 A 12.027 12.027 0 0 0 405.44 42.72 A 9.997 9.997 0 0 0 405.702 45.066 A 7.249 7.249 0 0 0 407.04 47.88 A 7.438 7.438 0 0 0 408.819 49.539 A 6.468 6.468 0 0 0 410.96 50.44 A 6.721 6.721 0 0 0 412.435 50.601 Q 413.384 50.601 414.393 50.348 A 10.816 10.816 0 0 0 416 49.8 Q 418.72 48.64 420.96 45.44 Q 418.32 41.84 415.48 38.76 Q 412.64 35.68 410.08 32.64 Z M 419.36 15.76 A 8.445 8.445 0 0 0 419.208 14.101 Q 418.873 12.43 417.8 11.44 Q 416.24 10 414.24 10 A 5.286 5.286 0 0 0 411.336 10.884 A 7.362 7.362 0 0 0 410.36 11.64 Q 408.757 13.101 408.582 15.862 A 11.016 11.016 0 0 0 408.56 16.56 Q 408.56 18.88 409.28 20.88 A 10.845 10.845 0 0 0 409.887 22.232 Q 410.725 23.83 412.32 25.92 Q 416.16 23.52 417.76 20.8 A 13.916 13.916 0 0 0 418.704 18.897 Q 419.36 17.246 419.36 15.76 Z" id="10" vector-effect="non-scaling-stroke"/>
		<path d="M 510.08 7.84 L 508 13.36 Q 506.4 12.4 503.6 11.44 Q 500.8 10.48 497.36 10.48 Q 493.76 10.48 491.12 12.28 A 5.847 5.847 0 0 0 488.548 16.573 A 8.74 8.74 0 0 0 488.48 17.68 Q 488.48 19.76 489.24 21.2 Q 490 22.64 491.32 23.72 Q 492.64 24.8 494.4 25.68 Q 496.16 26.56 498.24 27.44 A 95.16 95.16 0 0 1 501.496 28.88 A 75.434 75.434 0 0 1 503.8 30 Q 506.32 31.28 508.12 33.04 Q 509.92 34.8 510.92 37.2 A 12.146 12.146 0 0 1 511.638 39.679 Q 511.85 40.829 511.903 42.145 A 22.283 22.283 0 0 1 511.92 43.04 A 15.358 15.358 0 0 1 511.381 47.225 A 11.053 11.053 0 0 1 507.56 53 A 14.328 14.328 0 0 1 502.924 55.409 Q 500.878 56.062 498.398 56.317 A 32.88 32.88 0 0 1 495.04 56.48 Q 492.4 56.48 490.08 56.12 A 34.125 34.125 0 0 1 487.955 55.724 Q 486.888 55.489 485.96 55.2 A 46.793 46.793 0 0 1 484.469 54.71 Q 483.565 54.395 482.8 54.08 A 20.753 20.753 0 0 1 482.013 53.738 Q 481.299 53.409 480.828 53.11 A 5.578 5.578 0 0 1 480.72 53.04 L 482.72 47.6 A 19.177 19.177 0 0 0 483.804 48.147 Q 484.908 48.666 486.453 49.265 A 73.87 73.87 0 0 0 487.44 49.64 Q 490.067 50.616 493.657 50.771 A 32.191 32.191 0 0 0 495.04 50.8 Q 498.219 50.8 500.442 50.036 A 8.583 8.583 0 0 0 502.72 48.88 A 6.222 6.222 0 0 0 505.234 44.708 A 9.537 9.537 0 0 0 505.36 43.12 A 9.366 9.366 0 0 0 505.183 41.252 A 6.785 6.785 0 0 0 504.4 39.16 A 9.998 9.998 0 0 0 502.038 36.437 A 11.435 11.435 0 0 0 501.84 36.28 A 17.965 17.965 0 0 0 498.976 34.476 A 20.568 20.568 0 0 0 498.24 34.12 Q 496.24 33.2 494.16 32.4 Q 491.76 31.44 489.56 30.24 Q 487.36 29.04 485.64 27.44 Q 483.92 25.84 482.92 23.68 A 10.386 10.386 0 0 1 482.14 21.159 Q 481.934 20.023 481.921 18.733 A 17.315 17.315 0 0 1 481.92 18.56 A 16.51 16.51 0 0 1 482.447 14.269 A 11.697 11.697 0 0 1 486 8.44 A 13.522 13.522 0 0 1 491.374 5.56 Q 493.368 4.99 495.738 4.848 A 27.018 27.018 0 0 1 497.36 4.8 Q 499.36 4.8 501.32 5.08 A 43.714 43.714 0 0 1 503.647 5.474 A 35.58 35.58 0 0 1 504.96 5.76 Q 506.64 6.16 507.96 6.72 Q 508.915 7.125 509.597 7.53 A 7.64 7.64 0 0 1 510.08 7.84 Z" id="12" vector-effect="non-scaling-stroke"/>
		<path d="M 552.77 41.318 A 26.993 26.993 0 0 0 553.12 36.88 A 28.394 28.394 0 0 0 552.96 33.821 A 22.606 22.606 0 0 0 551.88 28.88 Q 550.64 25.28 548.4 22.76 Q 546.16 20.24 543.04 18.84 Q 539.92 17.44 536.24 17.44 A 18.269 18.269 0 0 0 535.792 17.445 A 15.838 15.838 0 0 0 529.56 18.84 Q 526.48 20.24 524.24 22.76 A 16.169 16.169 0 0 0 522.528 25.078 A 19.352 19.352 0 0 0 520.76 28.88 A 21.745 21.745 0 0 0 519.907 32.214 A 27.019 27.019 0 0 0 519.52 36.88 Q 519.52 41.28 520.76 44.84 Q 522 48.4 524.24 50.96 Q 526.48 53.52 529.56 54.92 A 15.275 15.275 0 0 0 530.833 55.431 A 16.243 16.243 0 0 0 536.24 56.32 A 18.882 18.882 0 0 0 537.039 56.303 A 16.192 16.192 0 0 0 543.04 54.92 Q 546.16 53.52 548.4 50.96 Q 550.64 48.4 551.88 44.84 A 21.362 21.362 0 0 0 552.77 41.318 Z M 546.32 36.88 A 23.756 23.756 0 0 0 546.013 32.936 Q 545.407 29.337 543.6 26.92 Q 540.967 23.396 536.533 23.284 A 11.6 11.6 0 0 0 536.24 23.28 A 9.17 9.17 0 0 0 532.61 23.977 Q 530.639 24.817 529.191 26.669 A 10.898 10.898 0 0 0 529 26.92 A 12.627 12.627 0 0 0 527.077 30.921 Q 526.32 33.523 526.32 36.88 A 23.542 23.542 0 0 0 526.63 40.821 Q 527.231 44.357 529 46.76 Q 531.58 50.264 535.902 50.395 A 11.167 11.167 0 0 0 536.24 50.4 A 9.492 9.492 0 0 0 539.873 49.728 Q 541.981 48.864 543.503 46.889 A 10.996 10.996 0 0 0 543.6 46.76 A 12.653 12.653 0 0 0 545.597 42.624 Q 546.094 40.887 546.25 38.823 A 25.896 25.896 0 0 0 546.32 36.88 Z" id="13" vector-effect="non-scaling-stroke"/>
		<path d="M 575.76 55.44 L 569.2 55.44 L 569.2 23.84 L 561.36 23.84 L 561.36 18.32 L 569.2 18.32 L 569.2 14.96 A 25.653 25.653 0 0 1 569.366 11.958 Q 569.541 10.475 569.901 9.222 A 12.589 12.589 0 0 1 570.4 7.8 Q 571.6 4.96 573.56 3.2 Q 575.52 1.44 578.12 0.72 A 20.245 20.245 0 0 1 583.063 0.006 A 22.732 22.732 0 0 1 583.6 0 Q 586.48 0 589.4 0.64 A 51.501 51.501 0 0 1 593.412 1.684 A 44.394 44.394 0 0 1 594.88 2.16 L 593.68 7.84 Q 591.92 6.96 589.28 6.32 Q 586.64 5.68 583.92 5.68 A 11.405 11.405 0 0 0 581.537 5.922 A 10.153 10.153 0 0 0 580.76 6.12 Q 579.28 6.56 578.16 7.64 A 6.413 6.413 0 0 0 577.052 9.083 A 8.868 8.868 0 0 0 576.4 10.52 A 9.921 9.921 0 0 0 575.986 12.134 Q 575.845 12.941 575.792 13.874 A 20.625 20.625 0 0 0 575.76 15.04 L 575.76 18.32 L 590.72 18.32 L 590.72 23.84 L 575.76 23.84 L 575.76 55.44 Z" id="14" vector-effect="non-scaling-stroke"/>
		<path d="M 615.76 6.8 L 615.76 18.32 L 631.44 18.32 L 631.44 23.84 L 615.76 23.84 L 615.76 41.12 Q 615.76 43.92 616.16 45.68 A 8.267 8.267 0 0 0 616.571 46.998 Q 616.934 47.879 617.48 48.52 A 4.649 4.649 0 0 0 619.795 49.987 A 5.597 5.597 0 0 0 619.84 50 A 9.883 9.883 0 0 0 621.116 50.259 Q 621.747 50.347 622.466 50.38 A 19.495 19.495 0 0 0 623.36 50.4 Q 625.243 50.4 626.646 50.195 A 11.457 11.457 0 0 0 628 49.92 Q 629.76 49.44 631.36 48.64 L 632.32 54.24 Q 631.221 54.711 628.848 55.491 A 121.184 121.184 0 0 1 628.76 55.52 Q 626.818 56.157 624.141 56.287 A 29.328 29.328 0 0 1 622.72 56.32 A 29.742 29.742 0 0 1 620.04 56.207 Q 618.702 56.085 617.569 55.834 A 13.188 13.188 0 0 1 615.92 55.36 A 10.211 10.211 0 0 1 613.7 54.249 A 8.048 8.048 0 0 1 611.8 52.48 A 10.117 10.117 0 0 1 610.338 49.798 A 13.476 13.476 0 0 1 609.76 47.72 A 27.544 27.544 0 0 1 609.377 45.059 Q 609.2 43.235 609.2 41.12 L 609.2 23.84 L 601.36 23.84 L 601.36 18.32 L 609.2 18.32 L 609.2 7.92 L 615.76 6.8 Z" id="15" vector-effect="non-scaling-stroke"/>
		<path d="M 668.72 55.44 L 663.76 55.44 Q 662.56 52.72 661.68 50.48 Q 660.8 48.24 659.96 46 Q 659.12 43.76 658.28 41.32 A 367.474 367.474 0 0 0 657.492 39.055 Q 656.95 37.515 656.32 35.76 A 4914.515 4914.515 0 0 1 655.386 38.36 Q 654.958 39.551 654.573 40.62 A 2887.495 2887.495 0 0 1 654.32 41.32 Q 653.44 43.76 652.6 46 Q 651.76 48.24 650.84 50.48 Q 649.92 52.72 648.72 55.44 L 643.76 55.44 Q 641.52 45.6 640.04 35.96 Q 638.56 26.32 637.84 18.32 L 644.08 18.32 Q 644.32 21.44 644.6 24.44 Q 644.88 27.44 645.28 30.72 Q 645.68 34 646.2 37.84 A 3611.456 3611.456 0 0 1 646.732 41.785 Q 647.03 44.005 647.36 46.48 Q 648.24 44.28 648.931 42.458 A 152.851 152.851 0 0 0 649.52 40.88 Q 650.4 38.48 651.12 36.32 Q 651.84 34.16 652.52 31.92 Q 653.189 29.716 653.975 26.969 A 444.654 444.654 0 0 0 654 26.88 L 658.96 26.88 L 660.4 31.92 Q 661.04 34.16 661.76 36.32 L 663.28 40.88 A 103.221 103.221 0 0 0 664.057 43.118 Q 664.605 44.645 665.28 46.4 Q 666 42 666.56 38.24 Q 667.12 34.48 667.52 31.16 A 370.888 370.888 0 0 0 668.159 25.503 A 336.668 336.668 0 0 0 668.24 24.72 Q 668.56 21.6 668.8 18.32 L 674.8 18.32 Q 674.4 22.32 673.84 26.88 A 219.143 219.143 0 0 1 672.579 35.641 A 238.766 238.766 0 0 1 672.48 36.24 Q 671.68 41.04 670.72 45.96 A 311.548 311.548 0 0 1 668.979 54.294 A 280.507 280.507 0 0 1 668.72 55.44 Z" id="16" vector-effect="non-scaling-stroke"/>
		<path d="M 710.88 31.6 L 710.88 54.8 Q 708.56 55.2 704.76 55.76 Q 700.96 56.32 696.96 56.32 Q 693.92 56.32 691.04 55.8 A 16.589 16.589 0 0 1 687.846 54.9 A 13.937 13.937 0 0 1 685.92 53.96 Q 683.68 52.64 682.32 50.32 A 9.25 9.25 0 0 1 681.322 47.772 Q 681.051 46.635 680.983 45.307 A 17.796 17.796 0 0 1 680.96 44.4 A 12.199 12.199 0 0 1 681.191 41.965 A 8.7 8.7 0 0 1 682.36 39 Q 683.76 36.8 685.96 35.44 A 14.896 14.896 0 0 1 689.453 33.878 A 18.015 18.015 0 0 1 691 33.48 Q 693.84 32.88 696.72 32.88 Q 700.64 32.88 704.4 33.76 L 704.4 31.92 Q 704.4 30.24 704.04 28.68 Q 703.68 27.12 702.68 25.84 Q 701.68 24.56 699.96 23.8 A 7.941 7.941 0 0 0 698.398 23.308 Q 697.619 23.143 696.705 23.079 A 17.155 17.155 0 0 0 695.52 23.04 Q 692.571 23.04 690.268 23.393 A 22.805 22.805 0 0 0 689.52 23.52 Q 686.96 24 685.6 24.48 L 684.8 19.04 A 7.419 7.419 0 0 1 685.679 18.702 Q 686.655 18.388 688.132 18.118 A 40.254 40.254 0 0 1 689.32 17.92 A 42.487 42.487 0 0 1 693.765 17.492 A 50.856 50.856 0 0 1 696.08 17.44 A 27.784 27.784 0 0 1 699.015 17.586 Q 700.518 17.746 701.799 18.081 A 14.084 14.084 0 0 1 703.08 18.48 A 13.852 13.852 0 0 1 705.505 19.631 A 10.577 10.577 0 0 1 707.68 21.36 A 10.137 10.137 0 0 1 710.016 25.352 A 12.034 12.034 0 0 1 710.16 25.84 A 20.407 20.407 0 0 1 710.795 29.512 A 25.02 25.02 0 0 1 710.88 31.6 Z M 704.4 50.16 L 704.4 39.12 A 14.371 14.371 0 0 0 703.228 38.811 Q 702.361 38.619 701.32 38.48 Q 699.52 38.24 697.52 38.24 Q 695.68 38.24 693.92 38.52 A 11.048 11.048 0 0 0 692.091 38.966 A 8.86 8.86 0 0 0 690.8 39.52 Q 689.44 40.24 688.56 41.4 A 4.234 4.234 0 0 0 687.789 43.157 A 5.936 5.936 0 0 0 687.68 44.32 Q 687.68 46.768 688.808 48.198 A 4.504 4.504 0 0 0 690.12 49.32 A 9.339 9.339 0 0 0 692.387 50.226 Q 694.25 50.72 696.72 50.72 A 66.079 66.079 0 0 0 698.931 50.685 Q 699.971 50.65 700.898 50.581 A 39.32 39.32 0 0 0 701.16 50.56 Q 703.12 50.4 704.4 50.16 Z" id="17" vector-effect="non-scaling-stroke"/>
		<path d="M 731.44 55.44 L 724.88 55.44 L 724.88 20.32 Q 733.04 17.52 741.36 17.52 Q 743.92 17.52 746.24 17.72 Q 748.556 17.92 751.349 18.558 A 52.279 52.279 0 0 1 751.36 18.56 L 750.16 24.4 A 35.333 35.333 0 0 0 748.179 23.901 Q 747.234 23.693 746.388 23.572 A 18.629 18.629 0 0 0 745.64 23.48 A 38.013 38.013 0 0 0 743.321 23.318 A 48.545 48.545 0 0 0 741.36 23.28 A 37.465 37.465 0 0 0 732.698 24.321 A 42.109 42.109 0 0 0 731.44 24.64 L 731.44 55.44 Z" id="18" vector-effect="non-scaling-stroke"/>
		<path d="M 792.72 36.32 L 792.72 38.64 L 766.16 38.64 Q 766.499 43.514 768.985 46.412 A 10.009 10.009 0 0 0 769.96 47.4 A 11.186 11.186 0 0 0 774.2 49.696 Q 776.537 50.4 779.52 50.4 A 37.332 37.332 0 0 0 782.014 50.321 Q 783.237 50.239 784.301 50.072 A 18.845 18.845 0 0 0 785.52 49.84 A 30.625 30.625 0 0 0 786.887 49.5 Q 788.38 49.09 789.28 48.64 L 790.16 54.24 Q 788.98 54.87 785.942 55.576 A 57.023 57.023 0 0 1 785.84 55.6 Q 782.732 56.317 778.831 56.32 A 43.369 43.369 0 0 1 778.8 56.32 A 26.393 26.393 0 0 1 774.555 55.995 A 19.383 19.383 0 0 1 770.36 54.84 A 18.156 18.156 0 0 1 766.52 52.735 A 15.394 15.394 0 0 1 764.32 50.8 A 16.356 16.356 0 0 1 760.956 45.339 A 18.984 18.984 0 0 1 760.72 44.68 Q 759.52 41.12 759.52 36.96 A 27.416 27.416 0 0 1 759.811 32.865 Q 760.16 30.554 760.929 28.597 A 16.889 16.889 0 0 1 761.04 28.32 A 19.794 19.794 0 0 1 762.926 24.771 A 15.933 15.933 0 0 1 765.04 22.24 Q 767.52 19.84 770.64 18.64 Q 773.76 17.44 777.04 17.44 A 19.337 19.337 0 0 1 781.804 17.993 A 13.108 13.108 0 0 1 788.64 22.12 A 14.565 14.565 0 0 1 791.357 26.93 Q 792.121 29.108 792.457 31.795 A 36.544 36.544 0 0 1 792.72 36.32 Z M 766.32 33.28 L 786 33.28 Q 786 28.56 783.52 25.8 A 8.194 8.194 0 0 0 777.849 23.074 A 11.318 11.318 0 0 0 776.96 23.04 A 10.554 10.554 0 0 0 774.393 23.342 A 8.976 8.976 0 0 0 772.76 23.92 Q 770.88 24.8 769.52 26.24 Q 768.16 27.68 767.36 29.52 Q 766.56 31.36 766.32 33.28 Z" id="19" vector-effect="non-scaling-stroke"/>
		<path d="M 873.12 55.44 L 843.6 55.44 L 843.6 5.92 L 871.36 5.92 L 871.36 11.52 L 850.16 11.52 L 850.16 26.72 L 868.72 26.72 L 868.72 32.32 L 850.16 32.32 L 850.16 49.84 L 873.12 49.84 L 873.12 55.44 Z" id="21" vector-effect="non-scaling-stroke"/>
		<path d="M 882 55.44 L 882 19.36 Q 885.6 18.48 889.16 18 A 54.641 54.641 0 0 1 893.233 17.599 A 44.208 44.208 0 0 1 895.84 17.52 Q 903.28 17.52 907.08 21.36 Q 910.88 25.2 910.88 33.68 L 910.88 55.44 L 904.32 55.44 L 904.32 34.88 Q 904.32 31.28 903.68 29.04 A 11.546 11.546 0 0 0 903.14 27.53 Q 902.614 26.345 901.88 25.56 Q 900.72 24.32 899.08 23.84 Q 897.44 23.36 895.52 23.36 Q 893.92 23.36 892.12 23.56 Q 890.32 23.76 888.64 24.08 L 888.64 55.44 L 882 55.44 Z" id="22" vector-effect="non-scaling-stroke"/>
		<path d="M 944 53.28 L 944 52 A 9.012 9.012 0 0 1 943.229 52.387 Q 942.435 52.744 941.292 53.125 A 37.415 37.415 0 0 1 940.56 53.36 Q 938.385 54.035 935.577 54.077 A 25.108 25.108 0 0 1 935.2 54.08 A 17.578 17.578 0 0 1 930.539 53.476 A 15.956 15.956 0 0 1 929.08 53 Q 926.24 51.92 924.12 49.72 A 14.227 14.227 0 0 1 921.839 46.547 A 18.654 18.654 0 0 1 920.76 44.12 Q 919.52 40.72 919.52 36.08 A 24.982 24.982 0 0 1 919.929 31.475 A 20.69 20.69 0 0 1 920.68 28.6 A 17.672 17.672 0 0 1 922.826 24.274 A 15.933 15.933 0 0 1 924.04 22.72 A 15.303 15.303 0 0 1 929.39 18.862 A 17.493 17.493 0 0 1 929.44 18.84 Q 932.64 17.44 936.72 17.44 Q 941.52 17.44 944.92 18.12 Q 948.32 18.8 950.64 19.44 L 950.64 52.56 A 27.072 27.072 0 0 1 950.295 57.04 Q 949.896 59.415 949.034 61.28 A 11.183 11.183 0 0 1 946.28 65.04 Q 941.92 68.88 933.12 68.88 Q 929.52 68.88 926.6 68.32 A 41.831 41.831 0 0 1 924.012 67.742 Q 922.63 67.385 921.44 66.96 L 922.64 61.12 A 22.487 22.487 0 0 0 925.02 61.965 A 30.049 30.049 0 0 0 927.4 62.56 A 26.167 26.167 0 0 0 930.766 63.028 A 33.138 33.138 0 0 0 933.28 63.12 Q 938.523 63.12 941.049 61.198 A 6.08 6.08 0 0 0 941.52 60.8 Q 943.403 59.039 943.856 55.619 A 17.826 17.826 0 0 0 944 53.28 Z M 944 45.84 L 944 24.16 Q 943.04 23.84 941.36 23.56 A 16.51 16.51 0 0 0 940.193 23.412 Q 938.979 23.299 937.346 23.283 A 55.733 55.733 0 0 0 936.8 23.28 A 11.855 11.855 0 0 0 933.569 23.696 A 8.5 8.5 0 0 0 929 26.8 Q 926.32 30.32 926.32 36.16 A 22.582 22.582 0 0 0 926.446 38.608 Q 926.58 39.841 926.859 40.898 A 12.162 12.162 0 0 0 927.08 41.64 A 12.498 12.498 0 0 0 927.916 43.602 A 9.28 9.28 0 0 0 929.16 45.4 Q 930.48 46.88 932.16 47.56 A 9.47 9.47 0 0 0 935.633 48.239 A 10.777 10.777 0 0 0 935.76 48.24 A 15.239 15.239 0 0 0 939.605 47.765 A 13.988 13.988 0 0 0 940.44 47.52 Q 942.125 46.969 943.317 46.277 A 9.154 9.154 0 0 0 944 45.84 Z" id="23" vector-effect="non-scaling-stroke"/>
		<path d="M 971.36 41.12 L 971.36 23.84 L 960.64 23.84 L 960.64 18.32 L 977.92 18.32 L 977.92 41.12 Q 977.92 45.142 978.727 47.231 A 4.772 4.772 0 0 0 979.44 48.52 A 4.863 4.863 0 0 0 982.129 50.188 Q 982.926 50.387 983.873 50.399 A 9.678 9.678 0 0 0 984 50.4 A 16.846 16.846 0 0 0 986.628 50.203 A 13.895 13.895 0 0 0 988.28 49.84 A 22.42 22.42 0 0 0 989.423 49.482 Q 990.002 49.283 990.483 49.074 A 8.965 8.965 0 0 0 991.36 48.64 L 992.32 54.24 Q 991.84 54.48 990.96 54.84 A 15.077 15.077 0 0 1 990.074 55.169 Q 989.604 55.327 989.073 55.477 A 25.077 25.077 0 0 1 988.92 55.52 A 23.752 23.752 0 0 1 987.539 55.855 A 30.441 30.441 0 0 1 986.36 56.08 A 17.039 17.039 0 0 1 983.818 56.316 A 18.973 18.973 0 0 1 983.44 56.32 A 21.307 21.307 0 0 1 980.993 56.188 Q 979.784 56.048 978.761 55.759 A 10.445 10.445 0 0 1 977.6 55.36 A 8.733 8.733 0 0 1 974.715 53.458 A 8.369 8.369 0 0 1 973.88 52.48 A 10.431 10.431 0 0 1 972.571 50.029 A 14.223 14.223 0 0 1 971.92 47.72 A 27.544 27.544 0 0 1 971.537 45.059 Q 971.36 43.235 971.36 41.12 Z M 973.04 12.56 Q 970.96 12.56 969.44 11.12 A 4.761 4.761 0 0 1 968.028 8.444 A 6.9 6.9 0 0 1 967.92 7.2 A 6.526 6.526 0 0 1 968.125 5.519 A 4.673 4.673 0 0 1 969.44 3.28 Q 970.96 1.84 973.04 1.84 A 5.341 5.341 0 0 1 975.085 2.222 A 4.989 4.989 0 0 1 976.68 3.28 A 4.768 4.768 0 0 1 978.03 5.819 A 6.958 6.958 0 0 1 978.16 7.2 A 6.722 6.722 0 0 1 977.969 8.848 A 4.708 4.708 0 0 1 976.68 11.12 A 5.018 5.018 0 0 1 973.049 12.56 A 6.35 6.35 0 0 1 973.04 12.56 Z" id="24" vector-effect="non-scaling-stroke"/>
		<path d="M 1002 55.44 L 1002 19.36 Q 1005.6 18.48 1009.16 18 A 54.641 54.641 0 0 1 1013.233 17.599 A 44.208 44.208 0 0 1 1015.84 17.52 Q 1023.28 17.52 1027.08 21.36 Q 1030.88 25.2 1030.88 33.68 L 1030.88 55.44 L 1024.32 55.44 L 1024.32 34.88 Q 1024.32 31.28 1023.68 29.04 A 11.546 11.546 0 0 0 1023.14 27.53 Q 1022.614 26.345 1021.88 25.56 Q 1020.72 24.32 1019.08 23.84 Q 1017.44 23.36 1015.52 23.36 Q 1013.92 23.36 1012.12 23.56 Q 1010.32 23.76 1008.64 24.08 L 1008.64 55.44 L 1002 55.44 Z" id="25" vector-effect="non-scaling-stroke"/>
		<path d="M 1072.72 36.32 L 1072.72 38.64 L 1046.16 38.64 Q 1046.499 43.514 1048.985 46.412 A 10.009 10.009 0 0 0 1049.96 47.4 A 11.186 11.186 0 0 0 1054.2 49.696 Q 1056.537 50.4 1059.52 50.4 A 37.332 37.332 0 0 0 1062.014 50.321 Q 1063.237 50.239 1064.301 50.072 A 18.845 18.845 0 0 0 1065.52 49.84 A 30.625 30.625 0 0 0 1066.887 49.5 Q 1068.38 49.09 1069.28 48.64 L 1070.16 54.24 Q 1068.98 54.87 1065.942 55.576 A 57.023 57.023 0 0 1 1065.84 55.6 Q 1062.732 56.317 1058.831 56.32 A 43.369 43.369 0 0 1 1058.8 56.32 A 26.393 26.393 0 0 1 1054.555 55.995 A 19.383 19.383 0 0 1 1050.36 54.84 A 18.156 18.156 0 0 1 1046.52 52.735 A 15.394 15.394 0 0 1 1044.32 50.8 A 16.356 16.356 0 0 1 1040.956 45.339 A 18.984 18.984 0 0 1 1040.72 44.68 Q 1039.52 41.12 1039.52 36.96 A 27.416 27.416 0 0 1 1039.811 32.865 Q 1040.16 30.554 1040.929 28.597 A 16.889 16.889 0 0 1 1041.04 28.32 A 19.794 19.794 0 0 1 1042.926 24.771 A 15.933 15.933 0 0 1 1045.04 22.24 Q 1047.52 19.84 1050.64 18.64 Q 1053.76 17.44 1057.04 17.44 A 19.337 19.337 0 0 1 1061.804 17.993 A 13.108 13.108 0 0 1 1068.64 22.12 A 14.565 14.565 0 0 1 1071.357 26.93 Q 1072.121 29.108 1072.457 31.795 A 36.544 36.544 0 0 1 1072.72 36.32 Z M 1046.32 33.28 L 1066 33.28 Q 1066 28.56 1063.52 25.8 A 8.194 8.194 0 0 0 1057.849 23.074 A 11.318 11.318 0 0 0 1056.96 23.04 A 10.554 10.554 0 0 0 1054.393 23.342 A 8.976 8.976 0 0 0 1052.76 23.92 Q 1050.88 24.8 1049.52 26.24 Q 1048.16 27.68 1047.36 29.52 Q 1046.56 31.36 1046.32 33.28 Z" id="26" vector-effect="non-scaling-stroke"/>
		<path d="M 1112.72 36.32 L 1112.72 38.64 L 1086.16 38.64 Q 1086.499 43.514 1088.985 46.412 A 10.009 10.009 0 0 0 1089.96 47.4 A 11.186 11.186 0 0 0 1094.2 49.696 Q 1096.537 50.4 1099.52 50.4 A 37.332 37.332 0 0 0 1102.014 50.321 Q 1103.237 50.239 1104.301 50.072 A 18.845 18.845 0 0 0 1105.52 49.84 A 30.625 30.625 0 0 0 1106.887 49.5 Q 1108.38 49.09 1109.28 48.64 L 1110.16 54.24 Q 1108.98 54.87 1105.942 55.576 A 57.023 57.023 0 0 1 1105.84 55.6 Q 1102.732 56.317 1098.831 56.32 A 43.369 43.369 0 0 1 1098.8 56.32 A 26.393 26.393 0 0 1 1094.555 55.995 A 19.383 19.383 0 0 1 1090.36 54.84 A 18.156 18.156 0 0 1 1086.52 52.735 A 15.394 15.394 0 0 1 1084.32 50.8 A 16.356 16.356 0 0 1 1080.956 45.339 A 18.984 18.984 0 0 1 1080.72 44.68 Q 1079.52 41.12 1079.52 36.96 A 27.416 27.416 0 0 1 1079.811 32.865 Q 1080.16 30.554 1080.929 28.597 A 16.889 16.889 0 0 1 1081.04 28.32 A 19.794 19.794 0 0 1 1082.926 24.771 A 15.933 15.933 0 0 1 1085.04 22.24 Q 1087.52 19.84 1090.64 18.64 Q 1093.76 17.44 1097.04 17.44 A 19.337 19.337 0 0 1 1101.804 17.993 A 13.108 13.108 0 0 1 1108.64 22.12 A 14.565 14.565 0 0 1 1111.357 26.93 Q 1112.121 29.108 1112.457 31.795 A 36.544 36.544 0 0 1 1112.72 36.32 Z M 1086.32 33.28 L 1106 33.28 Q 1106 28.56 1103.52 25.8 A 8.194 8.194 0 0 0 1097.849 23.074 A 11.318 11.318 0 0 0 1096.96 23.04 A 10.554 10.554 0 0 0 1094.393 23.342 A 8.976 8.976 0 0 0 1092.76 23.92 Q 1090.88 24.8 1089.52 26.24 Q 1088.16 27.68 1087.36 29.52 Q 1086.56 31.36 1086.32 33.28 Z" id="27" vector-effect="non-scaling-stroke"/>
		<path d="M 1131.44 55.44 L 1124.88 55.44 L 1124.88 20.32 Q 1133.04 17.52 1141.36 17.52 Q 1143.92 17.52 1146.24 17.72 Q 1148.556 17.92 1151.349 18.558 A 52.279 52.279 0 0 1 1151.36 18.56 L 1150.16 24.4 A 35.333 35.333 0 0 0 1148.179 23.901 Q 1147.234 23.693 1146.388 23.572 A 18.629 18.629 0 0 0 1145.64 23.48 A 38.013 38.013 0 0 0 1143.321 23.318 A 48.545 48.545 0 0 0 1141.36 23.28 A 37.465 37.465 0 0 0 1132.698 24.321 A 42.109 42.109 0 0 0 1131.44 24.64 L 1131.44 55.44 Z" id="28" vector-effect="non-scaling-stroke"/>
	</g>
</svg>
